<!-- <svg xmlns="http://www.w3.org/2000/svg" x="0px" y="0px" width="100" height="100" viewBox="0 0 48 48">
<path fill="#21a366" d="M24.007,45.419c-0.574,0-1.143-0.15-1.646-0.44l-5.24-3.103c-0.783-0.438-0.401-0.593-0.143-0.682	c1.044-0.365,1.255-0.448,2.369-1.081c0.117-0.067,0.27-0.043,0.39,0.028l4.026,2.389c0.145,0.079,0.352,0.079,0.486,0l15.697-9.061	c0.145-0.083,0.24-0.251,0.24-0.424V14.932c0-0.181-0.094-0.342-0.243-0.432L24.253,5.446c-0.145-0.086-0.338-0.086-0.483,0	L8.082,14.499c-0.152,0.086-0.249,0.255-0.249,0.428v18.114c0,0.173,0.094,0.338,0.244,0.42l4.299,2.483	c2.334,1.167,3.76-0.208,3.76-1.591V16.476c0-0.255,0.2-0.452,0.456-0.452h1.988c0.248,0,0.452,0.196,0.452,0.452v17.886	c0,3.112-1.697,4.9-4.648,4.9c-0.908,0-1.623,0-3.619-0.982l-4.118-2.373C5.629,35.317,5,34.216,5,33.042V14.928	c0-1.179,0.629-2.279,1.646-2.861L22.36,3.002c0.994-0.562,2.314-0.562,3.301,0l15.694,9.069C42.367,12.656,43,13.753,43,14.932	v18.114c0,1.175-0.633,2.271-1.646,2.861L25.66,44.971c-0.503,0.291-1.073,0.44-1.654,0.44"></path><path fill="#21a366" d="M28.856,32.937c-6.868,0-8.308-3.153-8.308-5.797c0-0.251,0.203-0.452,0.455-0.452h2.028	c0.224,0,0.413,0.163,0.448,0.384c0.306,2.066,1.218,3.108,5.371,3.108c3.308,0,4.715-0.747,4.715-2.502	c0-1.01-0.401-1.76-5.54-2.263c-4.299-0.424-6.955-1.371-6.955-4.809c0-3.167,2.672-5.053,7.147-5.053	c5.026,0,7.517,1.745,7.831,5.493c0.012,0.13-0.035,0.255-0.122,0.35c-0.086,0.09-0.208,0.145-0.334,0.145h-2.039	c-0.212,0-0.397-0.149-0.44-0.354c-0.491-2.173-1.678-2.868-4.904-2.868c-3.611,0-4.031,1.257-4.031,2.2	c0,1.143,0.495,1.477,5.367,2.122c4.825,0.64,7.116,1.544,7.116,4.935c0,3.418-2.853,5.379-7.827,5.379"></path>
</svg> -->
<svg xmlns="http://www.w3.org/2000/svg" x="0px" y="0px" width="100" height="100" viewBox="0 0 48 48">
<path fill="#388e3c" d="M17.204 19.122l-4.907 2.715C12.113 21.938 12 22.126 12 22.329v5.433c0 .203.113.39.297.492l4.908 2.717c.183.101.41.101.593 0l4.907-2.717C22.887 28.152 23 27.965 23 27.762v-5.433c0-.203-.113-.39-.297-.492l-4.906-2.715c-.092-.051-.195-.076-.297-.076-.103 0-.205.025-.297.076M42.451 24.013l-.818.452c-.031.017-.049.048-.049.082v.906c0 .034.019.065.049.082l.818.453c.031.017.068.017.099 0l.818-.453c.03-.017.049-.048.049-.082v-.906c0-.034-.019-.065-.05-.082l-.818-.452C42.534 24.004 42.517 24 42.5 24S42.466 24.004 42.451 24.013"></path><path fill="#37474f" d="M35.751,13.364l-2.389-1.333c-0.075-0.042-0.167-0.041-0.241,0.003 c-0.074,0.044-0.12,0.123-0.12,0.209L33,20.295l-2.203-1.219C30.705,19.025,30.602,19,30.5,19c-0.102,0-0.205,0.025-0.297,0.076 h0.001l-4.907,2.715C25.113,21.892,25,22.08,25,22.282v5.433c0,0.203,0.113,0.39,0.297,0.492l4.908,2.717 c0.183,0.101,0.41,0.101,0.593,0l4.907-2.717C35.887,28.106,36,27.918,36,27.715V13.788C36,13.612,35.904,13.45,35.751,13.364z M32.866,26.458l-2.23,1.235c-0.083,0.046-0.186,0.046-0.269,0l-2.231-1.235C28.051,26.412,28,26.326,28,26.234v-2.47 c0-0.092,0.051-0.177,0.135-0.224l2.231-1.234h-0.001c0.042-0.023,0.088-0.034,0.135-0.034c0.047,0,0.093,0.012,0.135,0.034 l2.23,1.234C32.949,23.587,33,23.673,33,23.765v2.47C33,26.326,32.949,26.412,32.866,26.458z"></path><path fill="#2e7d32" d="M17.204,19.122L12,27.762c0,0.203,0.113,0.39,0.297,0.492l4.908,2.717 c0.183,0.101,0.41,0.101,0.593,0L23,22.329c0-0.203-0.113-0.39-0.297-0.492l-4.906-2.715c-0.092-0.051-0.195-0.076-0.297-0.076 c-0.103,0-0.205,0.025-0.297,0.076"></path><path fill="#4caf50" d="M17.204,19.122l-4.907,2.715C12.113,21.938,12,22.126,12,22.329l5.204,8.642 c0.183,0.101,0.41,0.101,0.593,0l4.907-2.717C22.887,28.152,23,27.965,23,27.762l-5.203-8.64c-0.092-0.051-0.195-0.076-0.297-0.076 c-0.103,0-0.205,0.025-0.297,0.076"></path><path fill="#37474f" d="M47.703 21.791l-4.906-2.715C42.705 19.025 42.602 19 42.5 19c-.102 0-.205.025-.297.076h.001l-4.907 2.715C37.114 21.892 37 22.084 37 22.294v5.411c0 .209.114.402.297.503l4.908 2.717c.184.102.409.102.593 0l2.263-1.253c.207-.115.206-.412-.002-.526l-4.924-2.687C40.052 26.412 40 26.325 40 26.231v-2.466c0-.092.05-.177.13-.221l2.235-1.236h-.001c.042-.023.088-.034.135-.034.047 0 .093.012.135.034l2.235 1.237c.08.044.13.129.13.221v2.012c0 .086.046.166.121.209.075.042.167.042.242-.001l2.398-1.393c.148-.086.24-.245.24-.417v-1.88C48 22.085 47.886 21.892 47.703 21.791zM10.703 21.791l-4.906-2.715C5.705 19.025 5.602 19 5.5 19c-.102 0-.205.025-.297.076h.001l-4.907 2.715C.114 21.892 0 22.084 0 22.294v7.465c0 .086.046.166.121.209.075.042.167.042.242-.001l2.398-1.393C2.909 28.488 3 28.329 3 28.157v-4.393c0-.092.05-.177.13-.221l2.235-1.236H5.365c.042-.023.088-.034.135-.034.047 0 .093.012.135.034l2.235 1.237C7.95 23.588 8 23.673 8 23.765v4.393c0 .172.091.331.24.417l2.398 1.393c.075.043.167.043.242.001C10.954 29.925 11 29.845 11 29.759v-7.464C11 22.085 10.886 21.892 10.703 21.791z"></path>
</svg>